<svg width="293" height="311" viewBox="0 0 293 311" fill="none" xmlns="http://www.w3.org/2000/svg">
<path d="M82.5483 1.1989C81.6687 1.81061 76.7817 4.37976 71.6748 6.89997C66.5679 9.44465 61.3878 12.1117 60.1416 12.8457C55.4257 15.6595 52.4935 18.3266 51.1251 21.0425C50.5143 22.2415 50.4165 22.7308 50.4165 24.3947C50.441 25.7159 50.5631 26.6702 50.8564 27.3064L51.2718 28.2606L53.9107 28.1138C57.9425 27.8936 60.3371 26.9149 63.5625 24.15C65.8105 22.217 66.8856 20.9447 71.797 14.4851C76.9283 7.73189 77.808 6.67976 81.3999 3.03401C83.0126 1.39465 84.2832 0.0489025 84.2343 0.0733719C84.1855 0.0733719 83.428 0.587202 82.5483 1.1989Z" fill="white"/>
<path d="M211.002 3.00954C214.619 6.70423 215.547 7.80529 220.605 14.4851C225.492 20.9202 226.592 22.217 228.84 24.15C232.041 26.8904 234.46 27.8936 238.491 28.1138L241.081 28.2606L241.521 27.4287C241.839 26.817 241.961 26.034 241.986 24.517C241.986 22.7308 241.888 22.2415 241.326 21.067C239.957 18.2776 236.708 15.4149 231.527 12.4298C230.208 11.6713 225.15 9.07763 220.287 6.67976C215.425 4.25742 210.684 1.78614 209.732 1.14997L208.021 -3.05176e-05L211.002 3.00954Z" fill="white"/>
<path d="M45.6273 15.7819C37.4905 23.0489 33.6787 30.5606 34.9982 36.7511C35.4136 38.684 36.9041 42.134 37.3439 42.134C37.8326 42.134 42.4264 37.3383 43.4282 35.7968C44.9676 33.3745 45.383 31.6862 45.7984 26.2298C46.1649 21.2383 46.5314 18.6936 47.3622 15.8553C47.631 14.9255 47.802 14.1181 47.7532 14.0691C47.7043 13.9957 46.7269 14.7787 45.6273 15.7819Z" fill="white"/>
<path d="M244.649 14.4117C245.822 18.3266 246.164 20.4308 246.604 26.2298C247.019 31.6862 247.434 33.3989 248.974 35.7968C249.927 37.2894 254.594 42.134 255.058 42.134C255.351 42.134 256.573 39.7117 257.159 37.9745C257.77 36.1638 257.77 32.2979 257.159 30.267C256.573 28.2362 254.667 24.6883 252.957 22.3883C251.466 20.4308 245.919 14.7053 245.015 14.2159C244.576 13.9957 244.527 14.0202 244.649 14.4117Z" fill="white"/>
<path d="M30.8687 32.7628C21.6323 44.3118 19.4821 54.0501 24.6134 61.2682C26.2261 63.5437 25.9817 63.4703 27.3501 61.9533C29.0605 60.0692 31.1619 56.8639 31.9927 54.8575C33.1656 52.0682 33.3366 50.0373 32.8723 44.9235C32.3836 39.9075 32.3348 35.1852 32.7257 32.4692C32.8723 31.4416 32.9212 30.5362 32.8723 30.4873C32.8235 30.4384 31.9194 31.466 30.8687 32.7628Z" fill="white"/>
<path d="M259.554 31.1234C259.994 33.6436 259.994 39.6628 259.579 44.5564C259.065 50.2575 259.188 51.8724 260.336 54.7351C261.289 57.0841 265.467 63.1277 266.176 63.1522C266.567 63.1766 268.277 60.7298 269.108 58.8947C272.334 51.9213 269.866 43.1862 261.802 33.0809C259.432 30.1447 259.359 30.0713 259.554 31.1234Z" fill="white"/>
<path d="M63.6113 32.0776C63.4647 32.1999 62.7073 32.5425 61.9009 32.8361C60.6059 33.3499 59.8484 33.4233 55.4257 33.5457L50.4165 33.6925L48.5839 34.5733C47.5821 35.0627 46.1405 36.0169 45.3585 36.6531C43.9658 37.8765 41.8399 40.152 42.011 40.2499C42.4264 40.5435 44.3567 41.2286 45.6518 41.5467C46.7758 41.8403 47.8753 41.9138 49.4392 41.8403C51.9559 41.6935 53.6908 41.1063 56.0366 39.5648C57.5271 38.5861 64.5399 31.8818 64.1 31.8574C63.9534 31.8574 63.7335 31.9552 63.6113 32.0776Z" fill="white"/>
<path d="M231.479 35.234C236.585 40.2744 238.931 41.6201 242.963 41.8403C244.527 41.9138 245.626 41.8403 246.75 41.5467C248.045 41.2286 249.976 40.5435 250.391 40.2744C250.562 40.1276 248.656 38.0723 247.166 36.7754C246.335 36.0659 244.82 35.0627 243.818 34.5733L241.985 33.6925L236.976 33.5457C232.554 33.4233 231.796 33.3499 230.501 32.8361C229.695 32.5425 228.937 32.1999 228.815 32.0776C228.669 31.9552 228.449 31.8574 228.326 31.8574C228.18 31.8574 229.597 33.3744 231.479 35.234Z" fill="white"/>
<path d="M53.2266 47.6883C52.0292 48.5447 49.1948 49.8415 47.7287 50.184C47.069 50.3309 45.2852 50.6245 43.7703 50.8202C39.201 51.4075 37.4905 52.2394 34.6561 55.2734C32.9457 57.0596 30.9176 59.9223 31.113 60.2404C31.1863 60.3383 32.2615 60.6319 33.4832 60.8521C40.1295 62.0755 44.9187 59.7021 50.3188 52.533C52.0781 50.184 54.3017 47.0032 54.1551 47.0277C54.1062 47.0521 53.6908 47.3213 53.2266 47.6883Z" fill="white"/>
<path d="M239.2 48.5202C246.384 59.1883 251.295 62.2713 258.919 60.8521C260.141 60.6319 261.216 60.3383 261.289 60.2404C261.484 59.9223 259.456 57.084 257.746 55.2489C254.96 52.2883 253.128 51.4074 248.607 50.8202C244.014 50.2085 241.814 49.4989 239.273 47.7617L238.125 46.9543L239.2 48.5202Z" fill="white"/>
<path d="M17.625 53.7564C15.6214 57.3287 14.0575 60.7542 12.9335 64.033C11.443 68.3883 11.1009 70.1989 11.0765 74.0649C11.0765 77.8574 11.3941 79.4723 12.6892 82.1638C13.52 83.9255 15.8413 86.9351 17.1852 87.9628C18.0404 88.6479 18.0893 88.6479 18.4069 88.2074C19.2621 87.0574 21.5101 82.384 22.2432 80.3043C22.9762 78.1511 23.0251 77.7596 23.0495 74.7989C23.0495 71.6915 23.0251 71.5202 21.6568 66.4798C20.0441 60.534 19.5309 57.8915 19.311 53.9276L19.14 51.0649L17.625 53.7564Z" fill="white"/>
<path d="M273.042 54.2947C272.871 58.0627 272.358 60.7542 270.648 66.9447C269.377 71.4957 269.352 71.6915 269.377 74.7989C269.377 77.7351 269.45 78.1511 270.183 80.3042C270.892 82.384 273.14 87.033 273.995 88.2319C274.313 88.6479 274.386 88.6234 275.486 87.7425C277.978 85.6872 280.079 82.1883 280.983 78.5915C281.448 76.8053 281.497 76.0713 281.374 73.3308C281.179 68.6574 280.006 64.4244 277.245 58.5032C276.219 56.301 273.458 51.1872 273.286 51.1872C273.238 51.1872 273.14 52.5819 273.042 54.2947Z" fill="white"/>
<path d="M44.4056 66.5043C42.2553 68.7798 39.6652 70.15 35.0226 71.5447C30.5022 72.9149 28.2053 74.5298 25.9573 77.8819C25.0532 79.2766 22.683 83.8766 22.683 84.2681C22.683 84.5862 25.9328 84.6841 27.8143 84.4394C33.8253 83.7054 37.686 80.7447 41.5467 73.9426C42.4752 72.3032 45.4563 65.8436 45.3585 65.7213C45.2852 65.6724 44.8698 66.0149 44.4056 66.5043Z" fill="white"/>
<path d="M246.995 65.7458C246.995 65.9904 250.122 72.6213 250.855 73.9426C254.716 80.7447 258.577 83.7054 264.588 84.4394C266.469 84.6841 269.719 84.5862 269.719 84.2681C269.719 83.8766 267.349 79.2766 266.445 77.8819C264.197 74.5298 261.9 72.9149 257.379 71.5447C252.688 70.15 250.831 69.1713 248.29 66.7734C247.581 66.0883 246.995 65.6234 246.995 65.7458Z" fill="white"/>
<path d="M6.84926 80.1329C3.50169 90.7276 2.69534 98.5819 4.25917 105.017C4.79673 107.195 6.50717 110.718 7.87552 112.406C9.195 114.046 11.5652 116.077 13.4711 117.153L14.815 117.936L15.5725 115.807C17.7716 109.593 18.3092 104.479 17.1852 100.246C16.9653 99.4383 15.4747 96.0861 13.8865 92.783C11.0276 86.8617 9.14613 81.9436 8.51083 78.6404C8.33978 77.784 8.11987 77.0744 8.02213 77.001C7.92439 76.9521 7.38682 78.3468 6.84926 80.1329Z" fill="white"/>
<path d="M284.184 77.7351C284.038 78.2734 283.745 79.3989 283.525 80.2553C282.718 83.4362 281.032 87.6447 278.613 92.5628C275.119 99.6096 274.753 100.833 274.753 105.017C274.753 108.638 275.266 111.305 276.83 115.783L277.611 117.985L278.491 117.447C282.743 114.878 285.064 112.406 286.823 108.589C287.996 106.02 288.46 104.259 288.803 101.102C289.365 95.5234 288.07 87.4245 285.284 79.2032L284.453 76.7564L284.184 77.7351Z" fill="white"/>
<path d="M39.0055 87.9873C37.0507 91.0213 34.1674 93.3458 29.2804 95.866C23.7093 98.7287 21.2414 102.252 19.4088 109.96L18.8468 112.333L20.0929 112.186C22.2432 111.966 25.1754 111.159 26.9591 110.302C31.7728 108.002 34.876 104.087 37.0507 97.5543C37.8815 95.0096 39.8607 87.449 39.7385 87.1553C39.6897 87.0575 39.372 87.4245 39.0055 87.9873Z" fill="white"/>
<path d="M252.615 87.1553C252.615 87.8404 254.789 95.8415 255.547 98.0436C258.308 105.824 262.511 110.009 269.181 111.599C270.819 111.99 273.629 112.431 273.629 112.284C273.629 112.26 273.311 111.012 272.92 109.519C270.916 101.934 268.644 98.7287 263.317 95.9639C258.21 93.3213 255.596 91.217 253.445 88.0362C252.981 87.3511 252.615 86.9596 252.615 87.1553Z" fill="white"/>
<path d="M0.936038 106.607C0.936038 106.73 0.764994 108.271 0.569516 110.033C-0.774399 121.778 0.276298 131.712 3.55056 138.171C5.3343 141.744 8.29092 145.022 11.272 146.809C12.8847 147.787 16.1834 149.231 17.2341 149.451C17.9671 149.598 17.9671 149.573 18.1137 148.399C19.3599 138.881 18.578 133.106 15.377 128.188C14.7417 127.234 12.9091 124.763 11.2964 122.756C6.62935 116.933 5.06552 114.535 2.47543 109.421C1.64465 107.733 0.936038 106.461 0.936038 106.607Z" fill="white"/>
<path d="M290.489 108.247C288.558 112.602 285.699 117.006 281.13 122.756C276.341 128.751 275.119 130.929 274.215 135.137C273.702 137.413 273.653 143.285 274.117 146.931L274.435 149.598L275.168 149.451C276.219 149.231 279.517 147.787 281.155 146.809C281.888 146.368 283.329 145.218 284.331 144.288C290.147 138.807 292.834 129.779 292.346 117.251C292.223 113.605 291.588 106.779 291.368 106.559C291.319 106.51 290.928 107.268 290.489 108.247Z" fill="white"/>
<path d="M37.6616 110.645C37.3928 111.672 35.5602 115.098 34.485 116.541C33.4832 117.887 31.3329 119.967 27.57 123.172C24.4668 125.839 22.9762 128.237 21.9744 132.152C21.388 134.55 20.8993 138.979 21.0215 141.132L21.0948 142.649L23.4894 141.719C28.0342 139.957 31.3574 137.437 33.5565 134.158C36.3176 129.974 37.3928 125.301 37.8326 115.538C38.0525 110.547 38.0036 109.323 37.6616 110.645Z" fill="white"/>
<path d="M254.447 111.795C254.496 112.7 254.618 115.098 254.692 117.08C255.254 131.687 259.09 138.073 269.817 142.062L271.503 142.698L271.356 139.223C271.136 134.379 270.525 131.418 269.181 128.58C268.18 126.427 266.909 124.91 264.27 122.707C260.971 119.918 259.041 118.034 257.917 116.541C256.891 115.171 254.814 111.256 254.814 110.743C254.814 110.571 254.692 110.351 254.569 110.278C254.398 110.18 254.35 110.694 254.447 111.795Z" fill="white"/>
<path d="M41.0336 138.612C40.325 143.163 38.6878 146.735 35.1692 151.457C34.0941 152.901 32.8235 154.736 32.3348 155.544C29.7447 159.85 29.3782 165.576 31.1375 173.405C31.4796 174.873 31.7972 176.121 31.8461 176.17C31.8949 176.219 32.6769 175.779 33.6054 175.192C42.8662 169.172 45.945 160.804 43.697 147.714C43.2327 144.949 41.5467 136.777 41.4245 136.654C41.3757 136.63 41.2046 137.511 41.0336 138.612Z" fill="white"/>
<path d="M250.098 140.765C248.339 148.913 247.825 152.95 248.07 157.012C248.436 163.863 251.026 169.074 256.011 173.112C257.819 174.58 260.409 176.317 260.58 176.17C260.629 176.097 260.947 174.849 261.265 173.381C263.024 165.502 262.657 159.85 260.092 155.593C259.603 154.81 258.357 152.999 257.306 151.555C253.445 146.295 252.175 143.505 251.32 138.416L251.002 136.507L250.098 140.765Z" fill="white"/>
<path d="M0.545085 143.187C0.618389 143.53 0.862738 145.12 1.05822 146.735C2.40213 156.816 5.04109 165.6 8.4864 171.546C13.1535 179.522 19.3355 183.633 27.9609 184.538C29.2804 184.685 30.3556 184.759 30.38 184.734C30.4777 184.612 29.7936 179.694 29.3782 177.32C28.8162 174.237 27.2768 169.662 26.0795 167.558C24.2469 164.303 21.9744 162.003 16.7942 158.113C10.4168 153.293 6.43388 149.671 2.9397 145.512C0.349606 142.404 0.398476 142.453 0.545085 143.187Z" fill="white"/>
<path d="M290.464 144.362C288.558 146.735 284.111 151.286 281.619 153.366C280.446 154.369 277.929 156.351 276.048 157.77C272.114 160.731 270.379 162.248 268.619 164.279C265.345 168.022 263.317 173.723 262.291 182.092C262.12 183.511 261.998 184.685 262.022 184.734C262.046 184.759 263.122 184.685 264.441 184.538C273.091 183.633 279.249 179.522 283.94 171.497C286.652 166.848 288.998 160.046 290.391 152.705C290.831 150.43 291.93 142.845 291.857 142.771C291.808 142.722 291.197 143.432 290.464 144.362Z" fill="white"/>
<path d="M51.7849 163.423C51.8826 164.083 51.9804 165.894 51.9804 167.46C52.0048 172.06 51.5161 174.091 48.364 182.361C46.9224 186.153 46.507 188.894 46.8735 192.001C47.3378 195.843 49.0482 200.712 51.6871 205.581L52.8112 207.636L53.9107 206.437C56.0121 204.064 57.918 201.299 59.0909 198.877C62.6339 191.487 62.1208 184.049 57.2583 173.283C55.9877 170.469 51.8338 162.273 51.6627 162.273C51.6138 162.273 51.6871 162.786 51.7849 163.423Z" fill="white"/>
<path d="M238.613 166.236C233.8 175.51 231.747 181.064 231.136 186.569C230.355 193.494 232.798 200.051 238.491 206.437L239.591 207.636L240.715 205.581C243.354 200.712 245.064 195.843 245.529 192.001C245.895 188.894 245.48 186.153 244.038 182.361C240.935 174.213 240.397 172.011 240.422 167.607C240.422 166.09 240.519 164.279 240.642 163.618C240.739 162.933 240.813 162.37 240.764 162.321C240.715 162.272 239.762 164.034 238.613 166.236Z" fill="white"/>
<path d="M9.87919 181.186C10.3434 182.703 12.9335 188.527 14.6195 191.879C22.8785 208.419 32.066 216.616 43.6725 217.815C46.1893 218.084 47.9975 217.986 51.4672 217.399C52.9578 217.154 53.7153 216.934 53.6419 216.738C51.9071 212.432 51.2962 211.013 50.1966 208.811C47.5332 203.501 44.0635 199.146 40.6426 196.846C38.5168 195.427 35.3891 193.91 30.38 191.879C22.5853 188.747 19.0178 186.887 13.129 182.924C10.4412 181.137 9.73258 180.746 9.87919 181.186Z" fill="white"/>
<path d="M281.203 181.627C275.925 185.444 269.67 188.82 262.389 191.756C257.013 193.91 253.91 195.402 251.759 196.846C248.461 199.072 244.869 203.501 242.425 208.395C241.57 210.059 238.687 216.714 238.687 216.983C238.687 217.105 241.814 217.595 243.94 217.815C248.632 218.304 253.201 217.448 257.624 215.246C266.029 211.111 273.164 202.302 279.615 188.086C281.277 184.392 282.743 180.844 282.621 180.746C282.572 180.697 281.936 181.088 281.203 181.627Z" fill="white"/>
<path d="M69.1825 185.762C69.2558 185.957 69.6467 186.961 70.0621 187.964C72.188 193.371 72.6767 197.947 71.8947 205.385C71.4305 209.692 71.5526 213.973 72.1635 216.224C73.4341 220.824 77.3681 226.795 82.4994 231.835L84.1854 233.523L85.1873 231.468C86.4579 228.826 87.2398 226.77 87.9484 224.054C88.7548 220.922 88.7792 215.246 87.9973 212.163C86.5801 206.535 83.0859 200.761 77.026 193.934C73.7273 190.239 69.0114 185.321 69.1825 185.762Z" fill="white"/>
<path d="M220.434 188.404C211.931 197.457 208.241 202.351 205.92 207.783C204.283 211.576 203.867 213.655 203.892 218.06C203.892 221.363 203.965 222.17 204.527 224.299C205.187 226.77 206.922 231.223 207.826 232.692L208.314 233.474L210.611 231.101C215.694 225.84 219.017 220.702 220.239 216.224C220.849 213.949 220.947 209.912 220.507 205.483C219.725 197.702 220.19 193.322 222.438 187.719C222.902 186.594 223.244 185.639 223.195 185.59C223.171 185.566 221.925 186.838 220.434 188.404Z" fill="white"/>
<path d="M93.0553 204.015C93.0553 204.064 93.6417 204.822 94.3503 205.654C97.2337 209.055 99.5794 213.337 100.85 217.448C101.265 218.794 101.998 221.828 102.463 224.177C103.538 229.462 104.1 231.395 105.199 233.597C107.423 238.026 110.477 241.255 115.902 244.975C119.738 247.568 124.405 250.162 124.625 249.795C124.723 249.624 124.967 248.155 125.187 246.565C125.798 242.332 125.578 236.655 124.723 233.475C123.208 227.749 120.887 223.932 116.22 219.381C111.455 214.757 107.838 212.31 93.8616 204.333C93.4218 204.088 93.0553 203.942 93.0553 204.015Z" fill="white"/>
<path d="M194.435 206.682C185.052 212.065 180.556 215.197 176.402 219.185C171.051 224.299 168.315 229.339 167.191 235.921C166.604 239.518 166.824 245.537 167.728 249.575C167.85 250.137 167.85 250.137 169.732 249.11C179.066 243.996 184.368 239.298 187.129 233.744C188.302 231.395 188.84 229.535 189.939 224.177C190.99 218.989 191.919 215.931 193.238 213.166C194.729 210.083 196.83 206.927 198.687 204.92C199.102 204.48 199.396 204.088 199.322 204.039C199.273 203.99 197.074 205.165 194.435 206.682Z" fill="white"/>
<path d="M30.4044 218.72C37.3195 227.994 45.7739 236.435 52.7867 241.133C59.4086 245.562 65.7372 247.715 72.1635 247.74C75.4134 247.764 77.7591 247.421 80.7157 246.516C82.6949 245.904 87.924 243.555 87.924 243.262C87.924 243.017 83.7456 237.83 81.8397 235.726C78.541 232.007 74.1183 228.557 70.7219 226.991C66.9589 225.253 64.2711 224.642 56.5252 223.81C53.2998 223.467 49.5613 223.002 48.2174 222.807C42.9395 221.999 36.6353 220.36 31.7483 218.549L29.6958 217.791L30.4044 218.72Z" fill="white"/>
<path d="M260.556 218.574C255.938 220.311 249.487 221.975 244.185 222.807C242.841 223.002 239.102 223.467 235.877 223.81C227.911 224.666 225.297 225.278 221.46 227.113C216.989 229.242 212.077 233.621 207.093 239.836C205.651 241.622 204.478 243.164 204.478 243.262C204.478 243.555 209.707 245.904 211.686 246.516C214.643 247.421 216.989 247.764 220.238 247.74C223.708 247.74 226.494 247.25 229.939 246.051C239.322 242.772 248.974 234.943 259.236 222.219C261.533 219.381 262.731 217.815 262.608 217.839C262.56 217.839 261.631 218.182 260.556 218.574Z" fill="white"/>
<path d="M98.2355 247.666C96.5984 247.911 93.5684 248.473 91.5159 248.865C81.3755 250.896 78.2722 251.214 69.3047 251.214C62.0475 251.214 61.8032 251.238 62.3407 251.654C63.7335 252.78 72.2368 258.31 74.9735 259.9C83.7456 264.989 92.0779 268.366 98.993 269.712C103.562 270.568 108.865 270.715 112.774 270.03C119.396 268.904 125.993 265.381 130.88 260.34L131.931 259.239L129.292 257.404C123.599 253.416 117.686 250.162 113.581 248.792C108.865 247.226 103.489 246.834 98.2355 247.666Z" fill="white"/>
<path d="M183.953 247.544C177.624 248.62 171.54 251.508 163.11 257.404L160.471 259.239L161.399 260.218C163.916 262.812 167.777 265.626 171.198 267.338C178.162 270.837 187.227 271.425 196.537 268.978C205.187 266.702 215.523 261.613 225.981 254.493C227.935 253.147 229.768 251.875 230.061 251.63C230.599 251.238 230.306 251.214 223.097 251.214C214.032 251.214 211.418 250.945 200.324 248.767C192.065 247.152 187.96 246.859 183.953 247.544Z" fill="white"/>
<path d="M137.649 262.004C138.333 262.616 139.921 264.011 141.192 265.087C142.463 266.164 143.538 267.118 143.562 267.216C143.66 267.461 123.379 277.101 114.802 280.869C102.56 286.277 95.5232 288.797 91.1005 289.36L89.0236 289.629L91.6137 300.395C93.8617 309.693 94.2526 311.038 94.3992 310.182C94.9124 307.246 96.1585 304.824 98.5287 302.303C101.73 298.853 105.786 296.015 118.345 288.381C131.711 280.282 136.867 276.905 143.782 271.718C145.273 270.593 146.568 269.687 146.665 269.687C146.763 269.687 147.911 270.495 149.207 271.473C155.828 276.514 161.717 280.38 174.545 288.161C187.08 295.77 190.795 298.339 194.24 301.789C195.12 302.67 196.268 304.016 196.781 304.799C197.832 306.414 198.834 309.056 198.858 310.28C198.858 310.745 198.907 311.063 198.98 310.989C199.078 310.892 204.234 289.922 204.234 289.629C204.234 289.604 203.476 289.506 202.572 289.433C196.732 288.87 182.951 283.316 159.274 271.963C154.093 269.467 149.817 267.387 149.744 267.314C149.671 267.265 149.964 266.922 150.355 266.58C153.189 264.182 156.806 261.001 156.757 260.952C156.708 260.928 154.436 262.004 151.699 263.35C146.983 265.675 146.69 265.772 145.981 265.503C145.566 265.332 143.244 264.231 140.825 263.032L136.427 260.854L137.649 262.004Z" fill="white"/>
</svg>
